<svg width="1200" height="675" viewBox="0 0 1200 675" xmlns="http://www.w3.org/2000/svg">
  <defs>
    <linearGradient id="bg" x1="0%" y1="0%" x2="100%" y2="100%">
      <stop offset="0%" stop-color="#0a0f1a" />
      <stop offset="100%" stop-color="#0f1628" />
    </linearGradient>
  </defs>
  <rect width="1200" height="675" fill="url(#bg)" />
  <rect x="0" y="0" width="1200" height="5" fill="#3b82f6" />
  <text x="600" y="60" font-family="Inter, Arial, sans-serif" font-size="14" font-weight="600" fill="#3b82f6" text-anchor="middle" letter-spacing="3">SAUNA BLANKETS</text>
<text x="600" y="140" font-family="Inter, Arial, sans-serif" font-size="30" font-weight="700" fill="#fff" text-anchor="middle">HigherDOSE vs MySauna vs LifePro</text>
<text x="600" y="180" font-family="Inter, Arial, sans-serif" font-size="30" font-weight="700" fill="#fff" text-anchor="middle">— Which $500+ Sauna Blanket</text>
<text x="600" y="220" font-family="Inter, Arial, sans-serif" font-size="30" font-weight="700" fill="#fff" text-anchor="middle">Actually Delivers?</text>
  <line x1="520" y1="190" x2="680" y2="190" stroke="#3b82f6" stroke-width="2" opacity="0.3" />
  <!-- Product Card 1 -->
  <rect x="70" y="260" width="340" height="320" rx="12" fill="#1a2332" stroke="#22c55e" stroke-width="3" />
  <rect x="70" y="260" width="340" height="36" rx="12" fill="#22c55e" /><text x="240" y="278" font-family="Inter, Arial, sans-serif" font-size="13" font-weight="700" fill="#fff" text-anchor="middle">🏆 EDITOR&#39;S CHOICE</text><rect x="70" y="296" width="340" height="2" fill="#22c55e" />
  <text x="240" y="310" font-family="Inter, Arial, sans-serif" font-size="18" font-weight="700" fill="#e2e8f0" text-anchor="middle">HigherDOSE Infrared Sauna Blanket</text>
  <rect x="90" y="340" width="300" height="2" fill="#2a3a4e" />
  <text x="240" y="370" font-family="Inter, Arial, sans-serif" font-size="13" fill="#94a3b8" text-anchor="middle">Score</text>
  <text x="240" y="400" font-family="Inter, Arial, sans-serif" font-size="36" font-weight="800" fill="#22c55e" text-anchor="middle">95</text>
  
  <rect x="100" y="450" width="280" height="4" rx="2" fill="#2a3a4e" />
  <rect x="100" y="450" width="266" height="4" rx="2" fill="#22c55e" />

  <!-- Product Card 2 -->
  <rect x="430" y="260" width="340" height="320" rx="12" fill="#1a2332" stroke="#2a3a4e" stroke-width="1" />
  
  <text x="600" y="290" font-family="Inter, Arial, sans-serif" font-size="18" font-weight="700" fill="#e2e8f0" text-anchor="middle">HigherDOSE Detox &amp; Glow Duo</text>
  <rect x="450" y="320" width="300" height="2" fill="#2a3a4e" />
  <text x="600" y="350" font-family="Inter, Arial, sans-serif" font-size="13" fill="#94a3b8" text-anchor="middle">Score</text>
  <text x="600" y="380" font-family="Inter, Arial, sans-serif" font-size="36" font-weight="800" fill="#22c55e" text-anchor="middle">93</text>
  
  <rect x="460" y="430" width="280" height="4" rx="2" fill="#2a3a4e" />
  <rect x="460" y="430" width="260" height="4" rx="2" fill="#22c55e" />

  <text x="600" y="650" font-family="Inter, Arial, sans-serif" font-size="13" fill="#64748b" text-anchor="middle">Science Solved It</text>
  <rect x="0" y="670" width="1200" height="5" fill="#3b82f6" />
</svg>